<svg xmlns="http://www.w3.org/2000/svg" xmlns:xlink="http://www.w3.org/1999/xlink" version="1.1" x="0px" y="0px" viewBox="0 0 64 80" enable-background="new 0 0 64 64" xml:space="preserve"><path d="M32,12.667C21.34,12.667,12.667,21.34,12.667,32S21.34,51.333,32,51.333S51.334,42.66,51.334,32S42.661,12.667,32,12.667z   M32,49.833c-9.833,0-17.834-8-17.834-17.833s8-17.833,17.834-17.833s17.833,8,17.833,17.833S41.834,49.833,32,49.833z"/><path d="M32,3.334c-15.807,0-28.667,12.86-28.667,28.667c0,15.806,12.86,28.665,28.667,28.665c15.807,0,28.667-12.859,28.667-28.665  C60.667,16.194,47.807,3.334,32,3.334z M32,59.166c-14.98,0-27.167-12.187-27.167-27.165C4.833,17.021,17.02,4.834,32,4.834  c14.979,0,27.167,12.187,27.167,27.167C59.167,46.979,46.979,59.166,32,59.166z"/><path d="M24.544,19.053c-3.648,2.105-6.251,5.663-7.141,9.761c-0.088,0.405,0.169,0.804,0.574,0.892  c0.054,0.012,0.107,0.017,0.16,0.017c0.345,0,0.656-0.24,0.732-0.591c0.801-3.686,3.143-6.886,6.425-8.78  c0.358-0.207,0.481-0.666,0.274-1.024C25.361,18.968,24.901,18.844,24.544,19.053z"/></svg>